<?xml version="1.0"?>
<svg version="1.1" xmlns="http://www.w3.org/2000/svg" width="400" height="200" style="border: dashed 2px #aaa"><path fill="#218020" d="M16.57861328125,121.5830078125q0-0.90576171875,0.62109375-1.151611328125t1.345703125-0.245849609375q1.26806640625,0,2.14794921875,1.138671875t1.669189453125,2.497314453125t1.565673828125,2.497314453125t1.83740234375,1.138671875q0.80224609375,0,1.462158203125-0.401123046875t1.138671875-1.00927734375t0.737548828125-1.37158203125t0.2587890625-1.513916015625q0-1.966796875-0.789306640625-4.06298828125t-2.0185546875-4.32177734375t-2.600830078125-4.5546875t-2.587890625-4.73583984375t-2.0185546875-4.904052734375t-0.80224609375-5.033447265625q0-3.80419921875,2.27734375-5.900390625t6.00390625-2.09619140625q1.26806640625,0,2.56201171875,0.3623046875t2.380859375,1.0869140625t1.772705078125,1.78564453125t0.685791015625,2.484375q0,0.4658203125-0.685791015625,0.608154296875t-0.996337890625,0.142333984375q-0.4658203125,0-1.00927734375-0.116455078125t-0.69873046875-0.634033203125t-0.43994140625-1.1904296875t-0.711669921875-1.255126953125t-1.00927734375-1.00927734375t-1.281005859375-0.427001953125q-1.16455078125,0-1.979736328125,0.478759765625t-1.31982421875,1.281005859375t-0.75048828125,1.798583984375t-0.245849609375,2.057373046875q0,2.484375,0.85400390625,5.007568359375t2.1220703125,5.0205078125t2.756103515625,4.929931640625t2.756103515625,4.73583984375t2.1220703125,4.5029296875t0.85400390625,4.16650390625q0,1.759765625-0.828125,2.97607421875t-2.09619140625,1.979736328125t-2.807861328125,1.11279296875t-3.014892578125,0.349365234375q-1.57861328125,0-3.23486328125-0.634033203125t-2.97607421875-1.746826171875t-2.173828125-2.600830078125t-0.85400390625-3.221923828125z M39.861088867188,117.908203125q0-1.8115234375,0.401123046875-4.27001953125t1.358642578125-4.658203125t2.523193359375-3.739501953125t3.946533203125-1.539794921875q2.2255859375,0,3.33837890625,1.281005859375t1.11279296875,3.454833984375q0,1.42333984375-0.530517578125,3.118408203125t-1.513916015625,3.208984375t-2.3291015625,2.523193359375t-3.001953125,1.00927734375l-0.6728515625-0.0517578125q0,0.69873046875,0.20703125,1.876220703125t0.608154296875,2.342041015625t1.03515625,2.04443359375t1.539794921875,0.8798828125q1.31982421875,0,2.5361328125-1.06103515625t2.30322265625-2.35498046875t2.0185546875-2.35498046875t1.7080078125-1.06103515625q0.4140625,0,0.85400390625,0.12939453125t0.49169921875,0.724609375q0,0.3623046875-0.194091796875,0.59521484375t-0.349365234375,0.517578125q-0.80224609375,1.37158203125-1.746826171875,2.61376953125t-2.135009765625,2.25146484375t-2.600830078125,1.591552734375t-3.118408203125,0.582275390625q-2.2255859375,0-3.70068359375-0.789306640625t-2.380859375-2.1220703125t-1.306884765625-3.07958984375t-0.401123046875-3.661865234375z M44.493413085938,115.94140625l0.724609375,0.64697265625q0.517578125,0.4658203125,1.03515625,0.20703125t0.931640625-0.944580078125t0.763427734375-1.695068359375t0.62109375-2.0703125t0.401123046875-2.0703125t0.12939453125-1.68212890625l0-0.8798828125t-0.07763671875-0.931640625t-0.271728515625-0.737548828125t-0.608154296875-0.375244140625q-0.12939453125-0.02587890625-0.23291015625-0.02587890625q-0.8798828125,0-1.5009765625,1.11279296875q-0.6728515625,1.2421875-1.0869140625,3.014892578125t-0.59521484375,3.635986328125t-0.23291015625,2.794921875z M61.487314453125,126.0341796875q0-0.75048828125,0.064697265625-1.57861328125t0.116455078125-1.552734375l0.1552734375-3.8818359375q0.2587890625-4.658203125,0.634033203125-9.1611328125t0.634033203125-9.109375q0.1552734375-2.5361328125,0.23291015625-4.981689453125t0.23291015625-4.981689453125q-0.103515625-0.20703125-0.103515625-0.28466796875q0-0.3623046875,0.271728515625-0.5693359375t0.634033203125-0.349365234375t0.763427734375-0.194091796875t0.608154296875-0.0517578125l0.59521484375,0q0.80224609375,0.103515625,1.16455078125,0.504638671875t0.4658203125,0.95751953125t0.0517578125,1.1904296875t-0.0517578125,1.177490234375q0,3.75244140625-0.18115234375,7.647216796875t-0.4140625,7.8154296875t-0.427001953125,7.84130859375t-0.194091796875,7.750732421875l0,1.8115234375q0,1.21630859375-0.685791015625,1.6044921875t-1.902099609375,0.38818359375q-1.06103515625,0-1.86328125-0.4658203125t-0.80224609375-1.52685546875z M73.357192382812,126.0341796875q0-0.75048828125,0.064697265625-1.57861328125t0.116455078125-1.552734375l0.1552734375-3.8818359375q0.2587890625-4.658203125,0.634033203125-9.1611328125t0.634033203125-9.109375q0.1552734375-2.5361328125,0.23291015625-4.981689453125t0.23291015625-4.981689453125q-0.103515625-0.20703125-0.103515625-0.28466796875q0-0.3623046875,0.271728515625-0.5693359375t0.634033203125-0.349365234375t0.763427734375-0.194091796875t0.608154296875-0.0517578125l0.59521484375,0q0.80224609375,0.103515625,1.16455078125,0.504638671875t0.4658203125,0.95751953125t0.0517578125,1.1904296875t-0.0517578125,1.177490234375q0,3.75244140625-0.18115234375,7.647216796875t-0.4140625,7.8154296875t-0.427001953125,7.84130859375t-0.194091796875,7.750732421875l0,1.8115234375q0,1.21630859375-0.685791015625,1.6044921875t-1.902099609375,0.38818359375q-1.06103515625,0-1.86328125-0.4658203125t-0.80224609375-1.52685546875z M84.7094921875,117.3388671875q0-1.47509765625,0.375244140625-3.040771484375t1.1904296875-2.82080078125t2.057373046875-2.04443359375t3.001953125-0.789306640625q1.31982421875,0,2.781982421875,0.452880859375t2.678466796875,1.2939453125t1.979736328125,2.057373046875t0.763427734375,2.71728515625q0,1.8115234375-0.659912109375,3.44189453125t-1.850341796875,2.911376953125t-2.781982421875,2.0185546875t-3.454833984375,0.737548828125q-1.52685546875,0-2.66552734375-0.556396484375t-1.902099609375-1.488037109375t-1.138671875-2.19970703125t-0.375244140625-2.69140625z M88.51369140625,117.287109375q0,0.4658203125,0.142333984375,1.37158203125t0.427001953125,1.772705078125t0.737548828125,1.5009765625t1.099853515625,0.582275390625q1.37158203125-0.1552734375,2.264404296875-0.892822265625t1.44921875-1.798583984375t0.7763671875-2.30322265625t0.219970703125-2.35498046875q0-1.42333984375-0.556396484375-2.380859375t-1.824462890625-1.552734375q0,0.0517578125,0.0517578125,0.0517578125t0.0517578125-0.0517578125l-0.64697265625-0.1552734375q-0.2587890625-0.103515625-0.634033203125-0.23291015625t-0.737548828125-0.5693359375q-1.00927734375,0.3623046875-1.565673828125,0.931640625t-0.841064453125,1.384521484375t-0.349365234375,1.953857421875t-0.064697265625,2.7431640625z M114.40139648437,118.24462890625q0-5.61572265625,0.504638671875-11.244384765625t2.109130859375-11.089111328125q0.4658203125-1.63037109375,1.21630859375-3.221923828125t1.83740234375-2.833740234375t2.587890625-2.0185546875t3.5712890625-0.7763671875l0.54345703125,0.0517578125q2.2255859375,0.310546875,3.28662109375,1.798583984375t1.06103515625,3.713623046875q0,0.59521484375-0.142333984375,1.488037109375t-0.452880859375,1.720947265625t-0.841064453125,1.410400390625t-1.332763671875,0.582275390625q-0.3623046875-0.0517578125-0.659912109375-0.12939453125t-0.556396484375-0.33642578125q0.4140625-0.90576171875,0.737548828125-1.88916015625t0.323486328125-2.25146484375q0-0.4658203125-0.07763671875-1.1904296875t-0.297607421875-1.436279296875t-0.582275390625-1.2421875t-1.00927734375-0.530517578125q-1.63037109375,0-2.7431640625,1.824462890625t-1.86328125,4.658203125t-1.11279296875,6.2626953125t-0.556396484375,6.625t-0.219970703125,5.77099609375t-0.02587890625,3.635986328125q0,1.2421875-0.02587890625,2.7431640625l0,0.33642578125q0.02587890625,1.31982421875,0.18115234375,2.51025390625q0.20703125,1.345703125,0.80224609375,2.3291015625t1.86328125,1.138671875q0.38818359375,0.0517578125,0.75048828125,0.0517578125q1.5009765625,0,2.71728515625-0.85400390625q1.5009765625-1.06103515625,2.66552734375-2.756103515625t2.0703125-3.7265625t1.669189453125-3.843017578125t1.488037109375-3.001953125t1.5009765625-1.1904296875q0.2587890625,0,0.7763671875,0.103515625t0.517578125,0.49169921875q0,0.103515625-0.0517578125,0.28466796875t-0.12939453125,0.28466796875q-0.69873046875,2.7431640625-1.772705078125,5.693359375t-2.7431640625,5.369873046875t-4.0888671875,3.946533203125t-5.809814453125,1.52685546875q-2.4326171875,0-3.946533203125-0.918701171875t-2.3291015625-2.45849609375t-1.11279296875-3.480712890625t-0.297607421875-3.93359375z M141.97977050781,119.66796875l0-2.4326171875q0-1.31982421875,0.064697265625-3.739501953125t0.168212890625-5.30517578125t0.28466796875-6.016845703125t0.4140625-5.913330078125t0.556396484375-4.981689453125t0.737548828125-3.2607421875q0.2587890625-0.59521484375,0.85400390625-0.75048828125t1.16455078125-0.1552734375q0.90576171875,0,1.591552734375,0.401123046875t0.685791015625,1.462158203125l-0.4658203125,0.517578125q-0.90576171875,5.97802734375-1.16455078125,12.0078125t-0.3623046875,12.0595703125q0.64697265625-1.00927734375,1.462158203125-1.979736328125t1.8115234375-1.720947265625t2.14794921875-1.203369140625t2.523193359375-0.452880859375q1.759765625,0,2.911376953125,1.06103515625t1.902099609375,2.756103515625t1.11279296875,3.791259765625t0.556396484375,4.1923828125t0.271728515625,3.972412109375t0.23291015625,3.118408203125q-0.49169921875,0.6728515625-1.44921875,0.6728515625l-0.07763671875,0q-0.4140625,0-0.90576171875-0.103515625t-0.64697265625-0.517578125l0.0517578125,0.0517578125q-0.3623046875-0.80224609375-0.49169921875-2.316162109375t-0.20703125-3.33837890625t-0.271728515625-3.739501953125t-0.582275390625-3.4677734375t-1.138671875-2.56201171875t-2.0185546875-1.06103515625l-0.1552734375,0q-1.52685546875,0-2.56201171875,0.931640625q-1.0869140625,0.9833984375-1.759765625,2.587890625t-1.03515625,3.5712890625t-0.556396484375,3.791259765625t-0.297607421875,3.3125t-0.2587890625,2.186767578125q-0.1552734375,0.59521484375-0.918701171875,0.789306640625t-1.306884765625,0.194091796875q-1.26806640625,0-2.0703125-0.724609375q-0.59521484375-1.42333984375-0.69873046875-3.54541015625t-0.103515625-4.140625z M166.73734375,116.84716796875q0-1.759765625,0.478759765625-3.39013671875t1.436279296875-2.911376953125t2.393798828125-2.04443359375t3.325439453125-0.763427734375q1.16455078125,0,2.574951171875,0.349365234375t2.652587890625,1.03515625t2.0703125,1.746826171875t0.828125,2.4326171875q0,0.64697265625-0.219970703125,0.9833984375t-0.892822265625,0.33642578125l-0.28466796875-0.0517578125q0.75048828125,2.0185546875,1.2939453125,4.140625t1.06103515625,4.244140625q0.20703125,0.4140625,0.310546875,0.737548828125t0.103515625,0.634033203125q0,0.4140625-0.23291015625,0.685791015625t-0.608154296875,0.401123046875t-0.7763671875,0.18115234375t-0.711669921875,0.0517578125q-1.11279296875,0-1.669189453125-0.38818359375t-0.80224609375-1.06103515625t-0.297607421875-1.513916015625t-0.20703125-1.695068359375q-0.310546875,1.00927734375-0.815185546875,1.966796875t-1.1904296875,1.720947265625t-1.617431640625,1.21630859375t-2.09619140625,0.452880859375q-1.7080078125,0-2.87255859375-0.9833984375t-1.876220703125-2.419677734375t-1.03515625-3.066650390625t-0.323486328125-3.02783203125z M170.4121484375,116.48486328125q0,0.95751953125,0.12939453125,2.0185546875t0.427001953125,2.09619140625t0.763427734375,1.953857421875t1.16455078125,1.617431640625q1.26806640625-1.37158203125,1.876220703125-3.33837890625t1.0869140625-3.791259765625t1.0869140625-3.13134765625t1.876220703125-1.306884765625q0.80224609375,0,1.345703125,0.28466796875q-0.2587890625-0.64697265625-0.85400390625-1.255126953125t-1.332763671875-1.11279296875t-1.52685546875-0.828125t-1.488037109375-0.323486328125q-0.20703125,0-0.478759765625,0.064697265625t-0.427001953125,0.012939453125q-1.06103515625,0.310546875-1.746826171875,1.073974609375t-1.11279296875,1.798583984375t-0.608154296875,2.1220703125t-0.18115234375,2.04443359375z M189.16581542969,116.22607421875q0-2.380859375,0.556396484375-4.671142578125t0.944580078125-4.567626953125q0.103515625-0.59521484375,0.815185546875-0.737548828125t1.203369140625-0.142333984375q0.85400390625,0,1.37158203125,0.2587890625q0.20703125,0.103515625,0.38818359375,0.23291015625t0.18115234375,0.33642578125q0,2.2255859375-0.530517578125,4.34765625t-0.530517578125,4.5029296875q0,0.80224609375,0.116455078125,1.513916015625t0.219970703125,1.410400390625l0.1552734375,0.75048828125q0,0.20703125,0.02587890625,0.3623046875t0.07763671875,0.3623046875q0,0.4658203125-0.659912109375,0.634033203125t-1.151611328125,0.168212890625q-0.75048828125,0-1.384521484375-0.297607421875t-0.996337890625-1.022216796875l-0.3623046875-0.75048828125q-0.310546875-0.59521484375-0.310546875-1.332763671875t-0.12939453125-1.358642578125z M190.82206542969,100.64697265625l0-0.49169921875q0-1.21630859375,0.608154296875-2.173828125t1.824462890625-0.95751953125q0.1552734375,0,0.297607421875,0.02587890625t0.297607421875,0.02587890625q0.310546875,0.0517578125,0.815185546875,0.245849609375t0.504638671875,0.608154296875l0,0.0517578125q-0.103515625,0.20703125-0.12939453125,0.427001953125t-0.12939453125,0.375244140625l0.0517578125-0.0517578125q-0.310546875,0.80224609375-0.504638671875,1.2939453125t-0.427001953125,0.789306640625t-0.582275390625,0.427001953125t-0.996337890625,0.12939453125q-0.103515625,0-0.3623046875-0.02587890625t-0.556396484375-0.103515625t-0.504638671875-0.20703125t-0.20703125-0.38818359375z M200.49223632813,116.9765625l0-0.75048828125q0-0.931640625,0.0517578125-1.759765625q0.0517578125-1.16455078125,0.0517578125-1.9150390625q0-0.4140625,0.0517578125-0.944580078125t0.2587890625-0.841064453125q0.2587890625-0.2587890625,0.608154296875-0.530517578125t0.763427734375-0.271728515625q1.31982421875,0,2.0703125,0.297607421875t0.80224609375,1.229248046875l0.103515625,0.80224609375q0.4658203125-1.11279296875,1.2421875-2.756103515625t1.798583984375-3.13134765625t2.30322265625-2.5361328125t2.704345703125-1.048095703125q1.31982421875,0,2.173828125,1.2421875t1.358642578125,3.170166015625t0.711669921875,4.2958984375t0.28466796875,4.645263671875t0.103515625,4.153564453125t0.18115234375,2.833740234375q0.103515625,0.80224609375,0.349365234375,1.695068359375t0.245849609375,1.643310546875q0,0.20703125-0.297607421875,0.401123046875t-0.634033203125,0.323486328125t-0.685791015625,0.20703125t-0.504638671875,0.07763671875q-1.00927734375,0-1.436279296875-1.513916015625t-0.530517578125-3.791259765625t-0.103515625-4.929931640625t-0.18115234375-4.929931640625t-0.737548828125-3.791259765625t-1.772705078125-1.565673828125q-1.11279296875,0-2.30322265625,1.436279296875t-2.04443359375,3.817138671875q-0.828125,2.380859375-1.138671875,5.40869140625q-0.103515625,0.95751953125-0.103515625,1.9150390625q0,2.09619140625,0.43994140625,4.1923828125q0.0517578125,0.3623046875-0.297607421875,0.54345703125t-0.866943359375,0.28466796875t-1.048095703125,0.12939453125t-0.815185546875,0.02587890625q-1.00927734375,0-1.617431640625-0.711669921875t-0.944580078125-1.824462890625t-0.452880859375-2.497314453125t-0.142333984375-2.730224609375z M224.00762207031,117.908203125q0-1.8115234375,0.401123046875-4.27001953125t1.358642578125-4.658203125t2.523193359375-3.739501953125t3.946533203125-1.539794921875q2.2255859375,0,3.33837890625,1.281005859375t1.11279296875,3.454833984375q0,1.42333984375-0.530517578125,3.118408203125t-1.513916015625,3.208984375t-2.3291015625,2.523193359375t-3.001953125,1.00927734375l-0.6728515625-0.0517578125q0,0.69873046875,0.20703125,1.876220703125t0.608154296875,2.342041015625t1.03515625,2.04443359375t1.539794921875,0.8798828125q1.31982421875,0,2.5361328125-1.06103515625t2.30322265625-2.35498046875t2.0185546875-2.35498046875t1.7080078125-1.06103515625q0.4140625,0,0.85400390625,0.12939453125t0.49169921875,0.724609375q0,0.3623046875-0.194091796875,0.59521484375t-0.349365234375,0.517578125q-0.80224609375,1.37158203125-1.746826171875,2.61376953125t-2.135009765625,2.25146484375t-2.600830078125,1.591552734375t-3.118408203125,0.582275390625q-2.2255859375,0-3.70068359375-0.789306640625t-2.380859375-2.1220703125t-1.306884765625-3.07958984375t-0.401123046875-3.661865234375z M228.63994628906,115.94140625l0.724609375,0.64697265625q0.517578125,0.4658203125,1.03515625,0.20703125t0.931640625-0.944580078125t0.763427734375-1.695068359375t0.62109375-2.0703125t0.401123046875-2.0703125t0.12939453125-1.68212890625l0-0.8798828125t-0.07763671875-0.931640625t-0.271728515625-0.737548828125t-0.608154296875-0.375244140625q-0.12939453125-0.02587890625-0.23291015625-0.02587890625q-0.8798828125,0-1.5009765625,1.11279296875q-0.6728515625,1.2421875-1.0869140625,3.014892578125t-0.59521484375,3.635986328125t-0.23291015625,2.794921875z M245.63384765625,116.53662109375q0-2.0185546875,0.427001953125-3.661865234375t1.358642578125-2.781982421875t2.445556640625-1.772705078125t3.687744140625-0.634033203125q1.21630859375,0,2.484375,0.323486328125t2.173828125,1.203369140625q0-0.517578125,0.103515625-2.135009765625t0.2587890625-3.765380859375t0.323486328125-4.5029296875t0.297607421875-4.37353515625t0.23291015625-3.39013671875t0.1552734375-1.552734375q0.2587890625-0.75048828125,0.95751953125-0.892822265625t1.31982421875-0.142333984375q1.63037109375,0,2.005615234375,0.517578125t0.375244140625,2.0703125q0,5.66748046875-0.504638671875,11.283203125t-0.504638671875,11.283203125q0,3.64892578125,0.142333984375,7.336669921875t1.022216796875,7.259033203125l0.28466796875,0.2587890625l0.1552734375,0.4658203125l-0.38818359375,0.59521484375q-0.9833984375,0.62109375-2.27734375,0.62109375l-0.103515625,0q-1.31982421875,0-2.4326171875-0.62109375q-0.4140625-0.2587890625-0.685791015625-1.539794921875t-0.427001953125-2.82080078125t-0.23291015625-2.963134765625t-0.12939453125-2.0185546875q-0.90576171875,2.0703125-2.471435546875,3.558349609375t-3.946533203125,1.488037109375q-1.86328125,0-3.0537109375-0.80224609375t-1.850341796875-2.04443359375t-0.931640625-2.781982421875t-0.271728515625-3.066650390625z M248.7651953125,116.69189453125q0,0.59521484375,0.142333984375,1.759765625t0.452880859375,2.3291015625t0.866943359375,2.0703125t1.462158203125,0.90576171875q1.21630859375-0.59521484375,2.19970703125-1.979736328125t1.695068359375-3.0537109375t1.11279296875-3.33837890625t0.401123046875-2.885498046875q0-1.52685546875-1.11279296875-2.5361328125t-2.66552734375-1.00927734375q-0.4658203125,0-0.944580078125,0.18115234375t-0.892822265625,0.4140625q-0.95751953125,0.90576171875-1.488037109375,1.643310546875t-0.80224609375,1.52685546875t-0.349365234375,1.746826171875t-0.07763671875,2.2255859375z"/><path fill="#6be665" d="M275.54962402344,123.06396484375q0-7.09912109375,0.637939453125-14.214599609375t2.666259765625-14.018310546875q0.5888671875-2.06103515625,1.53759765625-4.072998046875t2.32275390625-3.582275390625t3.271484375-2.5517578125t4.5146484375-0.9814453125l0.68701171875,0.0654296875q2.8134765625,0.392578125,4.15478515625,2.273681640625t1.34130859375,4.694580078125q0,0.75244140625-0.179931640625,1.881103515625t-0.572509765625,2.175537109375t-1.063232421875,1.782958984375t-1.684814453125,0.736083984375q-0.4580078125-0.0654296875-0.834228515625-0.16357421875t-0.703369140625-0.42529296875q0.5234375-1.14501953125,0.932373046875-2.38818359375t0.408935546875-2.84619140625q0-0.5888671875-0.09814453125-1.5048828125t-0.376220703125-1.815673828125t-0.736083984375-1.5703125t-1.27587890625-0.670654296875q-2.06103515625,0-3.4677734375,2.306396484375t-2.35546875,5.888671875t-1.40673828125,7.9169921875t-0.703369140625,8.375t-0.278076171875,7.29541015625t-0.03271484375,4.596435546875q0,1.5703125-0.03271484375,3.4677734375l0,0.42529296875q0.03271484375,1.66845703125,0.22900390625,3.17333984375q0.26171875,1.701171875,1.01416015625,2.9443359375t2.35546875,1.439453125q0.49072265625,0.0654296875,0.94873046875,0.0654296875q1.8974609375,0,3.43505859375-1.07958984375q1.8974609375-1.34130859375,3.36962890625-3.484130859375t2.6171875-4.7109375t2.110107421875-4.858154296875t1.881103515625-3.794921875t1.8974609375-1.5048828125q0.3271484375,0,0.9814453125,0.130859375t0.654296875,0.62158203125q0,0.130859375-0.0654296875,0.35986328125t-0.16357421875,0.35986328125q-0.88330078125,3.4677734375-2.240966796875,7.197265625t-3.4677734375,6.788330078125t-5.1689453125,4.989013671875t-7.344482421875,1.93017578125q-3.0751953125,0-4.989013671875-1.161376953125t-2.9443359375-3.10791015625t-1.40673828125-4.400146484375t-0.376220703125-4.97265625z M310.4128515625,110.37060546875q0-1.93017578125,0.212646484375-4.67822265625t0.78515625-5.72509765625t1.53759765625-5.92138671875t2.469970703125-5.20166015625t3.5986328125-3.56591796875q1.73388671875-1.07958984375,3.9912109375-1.07958984375q0.4580078125,0,0.94873046875,0.0654296875q5.6923828125,0.5234375,8.751220703125,2.600830078125t4.465576171875,5.26708984375t1.6357421875,7.2626953125t0.22900390625,8.587646484375q0,3.63134765625-0.670654296875,7.900634765625t-2.371826171875,7.966064453125t-4.694580078125,6.166748046875t-7.606201171875,2.469970703125q-2.8134765625,0-4.923583984375-1.030517578125t-3.582275390625-2.748046875t-2.4208984375-3.9912109375t-1.439453125-4.7109375t-0.703369140625-4.923583984375t-0.212646484375-4.7109375z M317.05396484375,108.8984375q0,1.40673828125,0.03271484375,3.451416015625t0.278076171875,4.302001953125t0.637939453125,4.498291015625t1.161376953125,4.072998046875t1.946533203125,3.009765625t2.84619140625,1.2431640625l0.16357421875,0q1.5048828125,0,2.6826171875-1.14501953125q1.2431640625-1.21044921875,2.208251953125-2.91162109375t1.66845703125-3.582275390625t1.259521484375-3.222412109375l-0.130859375,0.29443359375q0.94873046875-3.009765625,1.27587890625-6.166748046875t0.3271484375-6.232177734375q0-1.47216796875-0.1962890625-3.549560546875t-0.637939453125-4.334716796875t-1.14501953125-4.465576171875t-1.782958984375-3.843994140625t-2.51904296875-2.486328125q-1.046875-0.62158203125-2.32275390625-0.654296875q-0.49072265625,0-0.9814453125,0.09814453125q-1.66845703125,0.3271484375-2.84619140625,1.6357421875t-1.913818359375,3.222412109375t-1.128662109375,4.1875t-0.605224609375,4.580078125t-0.245361328125,4.41650390625t-0.03271484375,3.582275390625z M331.808359375,118.974609375l0-0.0654296875l0,0.0654296875z M345.79951660156,100.26171875q0-2.2900390625,1.40673828125-4.35107421875t3.484130859375-3.582275390625t4.531005859375-2.4208984375t4.5146484375-0.899658203125q2.4208984375,0,4.302001953125,0.866943359375t3.189697265625,2.339111328125t2.011962890625,3.516845703125t0.703369140625,4.334716796875q0,4.15478515625-1.586669921875,8.11328125t-3.7294921875,7.737060546875t-4.41650390625,7.5244140625t-3.745849609375,7.508056640625l2.2900390625,0.0654296875q1.01416015625,0,2.044677734375-0.0654296875t1.979248046875-0.392578125q1.14501953125-1.07958984375,3.009765625-1.07958984375q0.75244140625,0,1.815673828125,0.1962890625t1.259521484375,1.14501953125q-0.0654296875,0-0.0654296875,0.26171875q0,1.27587890625-1.53759765625,1.881103515625t-3.582275390625,0.834228515625t-4.056640625,0.22900390625l-2.895263671875,0l-1.701171875,0t-2.38818359375-0.16357421875t-2.142822265625-0.49072265625t-1.128662109375-1.07958984375q1.40673828125-4.02392578125,3.89306640625-8.11328125t4.956298828125-8.162353515625t4.28564453125-8.195068359375t1.815673828125-8.34228515625q0-0.81787109375-0.278076171875-2.19189453125t-0.94873046875-2.6826171875t-1.79931640625-2.208251953125t-2.895263671875-0.834228515625q-1.60302734375,0.130859375-2.97705078125,1.063232421875t-2.469970703125,2.273681640625t-1.86474609375,2.927978515625t-1.128662109375,2.993408203125q0,0.5234375,0.212646484375,1.063232421875t0.212646484375,1.063232421875t-0.703369140625,0.670654296875t-1.063232421875,0.147216796875q-1.34130859375,0-2.077392578125-1.1123046875t-0.736083984375-2.38818359375z M362.41865722656,130.751953125q0.26171875,0,0.35986328125-0.0654296875q-0.22900390625,0-0.35986328125,0.0654296875z"/></svg>
